# xmcd
#
# Track frame offsets:
#	150
#	13017
#	23541
#	35783
#	48108
#	60372
#	73392
#	83806
#	94645
#	108354
#	123461
#	138754
#
# Disc length: 2026 seconds
#
# Revision: 0
# Processed by: cddbd v1.5.1PL0 Copyright (c) Steve Scherf et al.
# Submitted via: audiograbber 1.83.01
#
DISCID=9507e80c
DTITLE=Lolita - CD 310 Seemann deine heimat ist das Meer
DYEAR=2001
DGENRE=Oldies
TTITLE0=Seemann deine Heimat ist das Meer
TTITLE1=Der weiße Mond von Maratonga
TTITLE2=Addio Amigos
TTITLE3=Das kleine Haus von Waikiki
TTITLE4=Weißer Holunder
TTITLE5=Drei Tannen
TTITLE6=Rosen werden blüh`n
TTITLE7=Wenn der Sommer kommt
TTITLE8=Südwind
TTITLE9=Eine Rose aus San Remo
TTITLE10=Das kleine Bankerl 
TTITLE11=Über alle sieben Meere
EXTD=
EXTT0=
EXTT1=
EXTT2=
EXTT3=
EXTT4=
EXTT5=
EXTT6=
EXTT7=
EXTT8=
EXTT9=
EXTT10=
EXTT11=
PLAYORDER=
